<?xml version="1.0" encoding="UTF-8" standalone="no"?>
<!DOCTYPE svg PUBLIC "-//W3C//DTD SVG 1.1//EN"
 "http://www.w3.org/Graphics/SVG/1.1/DTD/svg11.dtd">
<!-- Generated by graphviz version 12.2.1 (0)
 -->
<!-- Title: G Pages: 1 -->
<svg width="556pt" height="271pt"
 viewBox="0.00 0.00 556.13 271.38" xmlns="http://www.w3.org/2000/svg" xmlns:xlink="http://www.w3.org/1999/xlink">
<g id="graph0" class="graph" transform="scale(1 1) rotate(0) translate(4 267.38)">
<title>G</title><style>.edge>path:hover{stroke-width:8}</style>
<polygon fill="white" stroke="none" points="-4,4 -4,-267.38 552.13,-267.38 552.13,4 -4,4"/>
<!-- pydeps_cli -->
<g id="node1" class="node">
<title>pydeps_cli</title><style>.edge>path:hover{stroke-width:8}</style>
<ellipse fill="#b83d3d" stroke="black" cx="220.04" cy="-173.38" rx="40.08" ry="18"/>
<text text-anchor="middle" x="220.04" y="-170.25" font-family="Helvetica,sans-Serif" font-size="10.00" fill="#ffffff">pydeps.cli</text>
</g>
<!-- pydeps_dot -->
<g id="node5" class="node">
<title>pydeps_dot</title><style>.edge>path:hover{stroke-width:8}</style>
<ellipse fill="#ac4949" stroke="black" cx="217.04" cy="-95.69" rx="42.83" ry="18"/>
<text text-anchor="middle" x="217.04" y="-92.56" font-family="Helvetica,sans-Serif" font-size="10.00" fill="#ffffff">pydeps.dot</text>
</g>
<!-- pydeps_cli&#45;&gt;pydeps_dot -->
<g id="edge1" class="edge">
<title>pydeps_cli&#45;&gt;pydeps_dot</title><style>.edge>path:hover{stroke-width:8}</style>
<path fill="none" stroke="black" d="M219.36,-155.2C219.01,-146.36 218.58,-135.35 218.18,-125.27"/>
<polygon fill="#b83d3d" stroke="black" points="221.69,-125.42 217.79,-115.57 214.69,-125.7 221.69,-125.42"/>
</g>
<!-- pydeps_pydeps -->
<g id="node7" class="node">
<title>pydeps_pydeps</title><style>.edge>path:hover{stroke-width:8}</style>
<ellipse fill="#813737" stroke="black" cx="252.04" cy="-18" rx="54.76" ry="18"/>
<text text-anchor="middle" x="252.04" y="-14.88" font-family="Helvetica,sans-Serif" font-size="10.00" fill="#ffffff">pydeps.pydeps</text>
</g>
<!-- pydeps_cli&#45;&gt;pydeps_pydeps -->
<g id="edge2" class="edge">
<title>pydeps_cli&#45;&gt;pydeps_pydeps</title><style>.edge>path:hover{stroke-width:8}</style>
<path fill="none" stroke="black" d="M244.35,-158.6C263.99,-145.47 288.33,-123.71 288.04,-96.69"/>
<path fill="none" stroke="black" d="M288.04,-94.69C287.85,-77.01 279.73,-59.06 271.26,-45.08"/>
<polygon fill="#b83d3d" stroke="black" points="274.34,-43.41 265.95,-36.93 268.47,-47.22 274.34,-43.41"/>
</g>
<!-- pydeps_colors -->
<g id="node2" class="node">
<title>pydeps_colors</title><style>.edge>path:hover{stroke-width:8}</style>
<ellipse fill="#c24747" stroke="black" cx="85.04" cy="-173.38" rx="51.09" ry="18"/>
<text text-anchor="middle" x="85.04" y="-170.25" font-family="Helvetica,sans-Serif" font-size="10.00" fill="#ffffff">pydeps.colors</text>
</g>
<!-- pydeps_depgraph2dot -->
<g id="node4" class="node">
<title>pydeps_depgraph2dot</title><style>.edge>path:hover{stroke-width:8}</style>
<ellipse fill="#ac4949" stroke="black" cx="59.04" cy="-95.69" rx="59.04" ry="23.69"/>
<text text-anchor="middle" x="59.04" y="-98.94" font-family="Helvetica,sans-Serif" font-size="10.00" fill="#ffffff">pydeps.</text>
<text text-anchor="middle" x="59.04" y="-86.19" font-family="Helvetica,sans-Serif" font-size="10.00" fill="#ffffff">depgraph2dot</text>
</g>
<!-- pydeps_colors&#45;&gt;pydeps_depgraph2dot -->
<g id="edge3" class="edge">
<title>pydeps_colors&#45;&gt;pydeps_depgraph2dot</title><style>.edge>path:hover{stroke-width:8}</style>
<path fill="none" stroke="black" d="M79.14,-155.2C76.59,-147.78 73.52,-138.83 70.55,-130.18"/>
<polygon fill="#c24747" stroke="black" points="73.94,-129.29 67.38,-120.97 67.32,-131.56 73.94,-129.29"/>
</g>
<!-- pydeps_colors&#45;&gt;pydeps_pydeps -->
<g id="edge4" class="edge">
<title>pydeps_colors&#45;&gt;pydeps_pydeps</title><style>.edge>path:hover{stroke-width:8}</style>
<path fill="none" stroke="black" d="M98.41,-155.53C120.92,-127.17 164.06,-72.87 165.04,-72 179.3,-59.43 196.92,-48.08 212.56,-39.13"/>
<polygon fill="#c24747" stroke="black" points="214.14,-42.26 221.18,-34.34 210.74,-36.14 214.14,-42.26"/>
</g>
<!-- pydeps_configs -->
<g id="node3" class="node">
<title>pydeps_configs</title><style>.edge>path:hover{stroke-width:8}</style>
<ellipse fill="#c24747" stroke="black" cx="254.04" cy="-245.38" rx="54.76" ry="18"/>
<text text-anchor="middle" x="254.04" y="-242.25" font-family="Helvetica,sans-Serif" font-size="10.00" fill="#ffffff">pydeps.configs</text>
</g>
<!-- pydeps_configs&#45;&gt;pydeps_cli -->
<g id="edge5" class="edge">
<title>pydeps_configs&#45;&gt;pydeps_cli</title><style>.edge>path:hover{stroke-width:8}</style>
<path fill="none" stroke="black" d="M245.81,-227.43C242.01,-219.61 237.41,-210.12 233.15,-201.35"/>
<polygon fill="#c24747" stroke="black" points="236.38,-199.99 228.86,-192.53 230.08,-203.05 236.38,-199.99"/>
</g>
<!-- pydeps_configs&#45;&gt;pydeps_pydeps -->
<g id="edge6" class="edge">
<title>pydeps_configs&#45;&gt;pydeps_pydeps</title><style>.edge>path:hover{stroke-width:8}</style>
<path fill="none" stroke="black" d="M260.72,-227.39C270.77,-200.21 288.56,-145.1 288.04,-96.69"/>
</g>
<!-- pydeps_depgraph2dot&#45;&gt;pydeps_pydeps -->
<g id="edge7" class="edge">
<title>pydeps_depgraph2dot&#45;&gt;pydeps_pydeps</title><style>.edge>path:hover{stroke-width:8}</style>
<path fill="none" stroke="black" d="M100.45,-78.45C131.89,-66.12 175.08,-49.18 207.31,-36.54"/>
<polygon fill="#ac4949" stroke="black" points="208.35,-39.89 216.38,-32.98 205.8,-33.38 208.35,-39.89"/>
</g>
<!-- pydeps_dot&#45;&gt;pydeps_pydeps -->
<g id="edge8" class="edge">
<title>pydeps_dot&#45;&gt;pydeps_pydeps</title><style>.edge>path:hover{stroke-width:8}</style>
<path fill="none" stroke="black" d="M224.99,-77.51C229.24,-68.32 234.57,-56.78 239.38,-46.38"/>
<polygon fill="#ac4949" stroke="black" points="242.48,-48.03 243.5,-37.48 236.12,-45.09 242.48,-48.03"/>
</g>
<!-- pydeps_py2depgraph -->
<g id="node6" class="node">
<title>pydeps_py2depgraph</title><style>.edge>path:hover{stroke-width:8}</style>
<ellipse fill="#b34c4c" stroke="black" cx="372.04" cy="-95.69" rx="56.39" ry="23.69"/>
<text text-anchor="middle" x="372.04" y="-98.94" font-family="Helvetica,sans-Serif" font-size="10.00" fill="#ffffff">pydeps.</text>
<text text-anchor="middle" x="372.04" y="-86.19" font-family="Helvetica,sans-Serif" font-size="10.00" fill="#ffffff">py2depgraph</text>
</g>
<!-- pydeps_py2depgraph&#45;&gt;pydeps_pydeps -->
<g id="edge9" class="edge">
<title>pydeps_py2depgraph&#45;&gt;pydeps_pydeps</title><style>.edge>path:hover{stroke-width:8}</style>
<path fill="none" stroke="black" d="M341.45,-75.39C324.46,-64.68 303.29,-51.32 285.81,-40.3"/>
<polygon fill="#b34c4c" stroke="black" points="288.14,-37.63 277.82,-35.26 284.41,-43.55 288.14,-37.63"/>
</g>
<!-- pydeps_target -->
<g id="node8" class="node">
<title>pydeps_target</title><style>.edge>path:hover{stroke-width:8}</style>
<ellipse fill="#b65353" stroke="black" cx="497.04" cy="-95.69" rx="51.09" ry="18"/>
<text text-anchor="middle" x="497.04" y="-92.56" font-family="Helvetica,sans-Serif" font-size="10.00" fill="#ffffff">pydeps.target</text>
</g>
<!-- pydeps_target&#45;&gt;pydeps_pydeps -->
<g id="edge10" class="edge">
<title>pydeps_target&#45;&gt;pydeps_pydeps</title><style>.edge>path:hover{stroke-width:8}</style>
<path fill="none" stroke="black" d="M463.89,-81.6C455.21,-78.32 445.82,-74.91 437.04,-72 392.93,-57.37 342.13,-42.99 304.94,-32.91"/>
<polygon fill="#b65353" stroke="black" points="305.88,-29.54 295.32,-30.31 304.06,-36.3 305.88,-29.54"/>
</g>
</g>
</svg>
